ply
format ascii 1.0
comment : MagicaVoxel @ Ephtracy
element vertex 1709
property float x
property float y
property float z
property uchar red
property uchar green
property uchar blue
end_header
-9 -3 0 187 187 187
-9 -2 0 187 187 187
-7 -2 0 187 187 187
-3 -2 0 187 187 187
-9 -1 0 187 187 187
-8 -1 0 187 187 187
-7 -1 0 187 187 187
-6 -1 0 187 187 187
-5 -1 0 187 187 187
-4 -1 0 187 187 187
-3 -1 0 187 187 187
-2 -1 0 187 187 187
-1 -1 0 187 187 187
-9 0 0 187 187 187
-8 0 0 187 187 187
-7 0 0 187 187 187
-6 0 0 187 187 187
-5 0 0 187 187 187
-4 0 0 187 187 187
-3 0 0 187 187 187
-2 0 0 187 187 187
-1 0 0 187 187 187
0 0 0 187 187 187
-9 1 0 187 187 187
-8 1 0 187 187 187
-7 1 0 187 187 187
-6 1 0 187 187 187
-5 1 0 187 187 187
-4 1 0 187 187 187
-3 1 0 187 187 187
-2 1 0 187 187 187
-1 1 0 187 187 187
-9 2 0 187 187 187
-7 2 0 187 187 187
-3 2 0 187 187 187
-9 3 0 187 187 187
-12 -5 1 187 187 187
-11 -5 1 187 187 187
-10 -5 1 187 187 187
-9 -5 1 187 187 187
-8 -5 1 187 187 187
-7 -5 1 187 187 187
-6 -5 1 187 187 187
-5 -5 1 187 187 187
-4 -5 1 187 187 187
-3 -5 1 187 187 187
-2 -5 1 187 187 187
-1 -5 1 187 187 187
-12 -4 1 187 187 187
-11 -4 1 187 187 187
-10 -4 1 187 187 187
-9 -4 1 187 187 187
-8 -4 1 187 187 187
-7 -4 1 187 187 187
-6 -4 1 187 187 187
-5 -4 1 187 187 187
-4 -4 1 187 187 187
-3 -4 1 187 187 187
-12 -3 1 187 187 187
-11 -3 1 187 187 187
-10 -3 1 187 187 187
-9 -3 1 0 51 102
-8 -3 1 187 187 187
-7 -3 1 187 187 187
-6 -3 1 187 187 187
-5 -3 1 187 187 187
-4 -3 1 187 187 187
-3 -3 1 187 187 187
-2 -3 1 187 187 187
-1 -3 1 187 187 187
-12 -2 1 187 187 187
-11 -2 1 187 187 187
-10 -2 1 187 187 187
-8 -2 1 187 187 187
-6 -2 1 187 187 187
-5 -2 1 187 187 187
-4 -2 1 187 187 187
-2 -2 1 187 187 187
-1 -2 1 187 187 187
-12 -1 1 187 187 187
-10 -1 1 187 187 187
-8 -1 1 187 187 187
-2 -1 1 187 187 187
-1 -1 1 187 187 187
-12 0 1 187 187 187
-10 0 1 187 187 187
0 0 1 238 238 238
-12 1 1 187 187 187
-10 1 1 187 187 187
-9 1 1 238 0 0
-8 1 1 187 187 187
-2 1 1 187 187 187
-1 1 1 187 187 187
-12 2 1 187 187 187
-11 2 1 187 187 187
-10 2 1 187 187 187
-8 2 1 187 187 187
-6 2 1 187 187 187
-5 2 1 187 187 187
-4 2 1 187 187 187
-2 2 1 187 187 187
-1 2 1 187 187 187
-12 3 1 187 187 187
-11 3 1 187 187 187
-10 3 1 187 187 187
-9 3 1 0 51 102
-8 3 1 187 187 187
-7 3 1 187 187 187
-6 3 1 187 187 187
-5 3 1 187 187 187
-4 3 1 187 187 187
-3 3 1 187 187 187
-2 3 1 187 187 187
-1 3 1 187 187 187
-12 4 1 187 187 187
-11 4 1 187 187 187
-10 4 1 187 187 187
-9 4 1 187 187 187
-8 4 1 187 187 187
-7 4 1 187 187 187
-6 4 1 187 187 187
-5 4 1 187 187 187
-4 4 1 187 187 187
-3 4 1 187 187 187
-12 5 1 187 187 187
-11 5 1 187 187 187
-10 5 1 187 187 187
-9 5 1 187 187 187
-8 5 1 187 187 187
-7 5 1 187 187 187
-6 5 1 187 187 187
-5 5 1 187 187 187
-4 5 1 187 187 187
-3 5 1 187 187 187
-2 5 1 187 187 187
-1 5 1 187 187 187
-12 -5 2 187 187 187
-11 -5 2 187 187 187
-10 -5 2 187 187 187
-9 -5 2 187 187 187
-8 -5 2 187 187 187
-7 -5 2 187 187 187
-6 -5 2 187 187 187
-5 -5 2 187 187 187
-4 -5 2 187 187 187
-3 -5 2 187 187 187
-2 -5 2 187 187 187
-1 -5 2 187 187 187
0 -5 2 187 187 187
1 -5 2 187 187 187
2 -5 2 187 187 187
3 -5 2 187 187 187
4 -5 2 187 187 187
5 -5 2 187 187 187
6 -5 2 187 187 187
7 -5 2 187 187 187
8 -5 2 187 187 187
9 -5 2 187 187 187
10 -5 2 187 187 187
-12 -4 2 187 187 187
-3 -4 2 0 51 102
-2 -4 2 187 187 187
-1 -4 2 187 187 187
0 -4 2 187 187 187
1 -4 2 187 187 187
2 -4 2 187 187 187
3 -4 2 187 187 187
4 -4 2 187 187 187
5 -4 2 187 187 187
6 -4 2 187 187 187
7 -4 2 187 187 187
8 -4 2 187 187 187
9 -4 2 187 187 187
10 -4 2 187 187 187
-12 -3 2 187 187 187
-11 -3 2 0 51 102
-10 -3 2 187 187 187
-8 -3 2 187 187 187
-7 -3 2 187 187 187
-6 -3 2 187 187 187
-4 -3 2 187 187 187
-3 -3 2 187 187 187
-2 -3 2 187 187 187
-1 -3 2 187 187 187
0 -3 2 187 187 187
1 -3 2 187 187 187
2 -3 2 187 187 187
3 -3 2 187 187 187
4 -3 2 187 187 187
5 -3 2 187 187 187
6 -3 2 187 187 187
7 -3 2 187 187 187
8 -3 2 187 187 187
9 -3 2 187 187 187
10 -3 2 187 187 187
-12 -2 2 187 187 187
-11 -2 2 187 187 187
-10 -2 2 187 187 187
-9 -2 2 187 187 187
-8 -2 2 187 187 187
-2 -2 2 187 187 187
-1 -2 2 187 187 187
0 -2 2 187 187 187
1 -2 2 187 187 187
2 -2 2 187 187 187
3 -2 2 187 187 187
4 -2 2 187 187 187
5 -2 2 187 187 187
6 -2 2 187 187 187
7 -2 2 187 187 187
8 -2 2 187 187 187
9 -2 2 187 187 187
10 -2 2 187 187 187
-12 -1 2 187 187 187
-11 -1 2 187 187 187
-10 -1 2 187 187 187
-9 -1 2 187 187 187
-8 -1 2 187 187 187
-2 -1 2 187 187 187
-1 -1 2 187 187 187
0 -1 2 187 187 187
1 -1 2 187 187 187
2 -1 2 187 187 187
3 -1 2 187 187 187
4 -1 2 187 187 187
5 -1 2 187 187 187
6 -1 2 187 187 187
7 -1 2 187 187 187
8 -1 2 187 187 187
9 -1 2 187 187 187
10 -1 2 187 187 187
-12 0 2 187 187 187
-11 0 2 187 187 187
-10 0 2 187 187 187
-9 0 2 187 187 187
-8 0 2 187 187 187
-2 0 2 187 187 187
-1 0 2 187 187 187
0 0 2 187 187 187
1 0 2 187 187 187
2 0 2 187 187 187
3 0 2 187 187 187
4 0 2 187 187 187
5 0 2 187 187 187
6 0 2 187 187 187
7 0 2 187 187 187
8 0 2 187 187 187
9 0 2 187 187 187
10 0 2 187 187 187
-12 1 2 187 187 187
-11 1 2 187 187 187
-10 1 2 187 187 187
-9 1 2 187 187 187
-8 1 2 187 187 187
-2 1 2 187 187 187
-1 1 2 187 187 187
0 1 2 187 187 187
1 1 2 187 187 187
2 1 2 187 187 187
3 1 2 187 187 187
4 1 2 187 187 187
5 1 2 187 187 187
6 1 2 187 187 187
7 1 2 187 187 187
8 1 2 187 187 187
9 1 2 187 187 187
10 1 2 187 187 187
-12 2 2 187 187 187
-11 2 2 187 187 187
-10 2 2 187 187 187
-9 2 2 187 187 187
-8 2 2 187 187 187
-2 2 2 187 187 187
-1 2 2 187 187 187
0 2 2 187 187 187
1 2 2 187 187 187
2 2 2 187 187 187
3 2 2 187 187 187
4 2 2 187 187 187
5 2 2 187 187 187
6 2 2 187 187 187
7 2 2 187 187 187
8 2 2 187 187 187
9 2 2 187 187 187
10 2 2 187 187 187
-12 3 2 187 187 187
-11 3 2 0 51 102
-10 3 2 187 187 187
-8 3 2 187 187 187
-7 3 2 187 187 187
-6 3 2 187 187 187
-5 3 2 238 0 0
-4 3 2 187 187 187
-3 3 2 187 187 187
-2 3 2 187 187 187
-1 3 2 187 187 187
0 3 2 187 187 187
1 3 2 187 187 187
2 3 2 187 187 187
3 3 2 187 187 187
4 3 2 187 187 187
5 3 2 187 187 187
6 3 2 187 187 187
7 3 2 187 187 187
8 3 2 187 187 187
9 3 2 187 187 187
10 3 2 187 187 187
-12 4 2 187 187 187
-4 4 2 0 51 102
-3 4 2 187 187 187
-2 4 2 187 187 187
-1 4 2 187 187 187
0 4 2 187 187 187
1 4 2 187 187 187
2 4 2 187 187 187
3 4 2 187 187 187
4 4 2 187 187 187
5 4 2 187 187 187
6 4 2 187 187 187
7 4 2 187 187 187
8 4 2 187 187 187
9 4 2 187 187 187
10 4 2 187 187 187
-12 5 2 187 187 187
-11 5 2 187 187 187
-10 5 2 187 187 187
-9 5 2 187 187 187
-8 5 2 187 187 187
-7 5 2 187 187 187
-6 5 2 187 187 187
-5 5 2 187 187 187
-4 5 2 187 187 187
-3 5 2 187 187 187
-2 5 2 187 187 187
-1 5 2 187 187 187
0 5 2 187 187 187
1 5 2 187 187 187
2 5 2 187 187 187
3 5 2 187 187 187
4 5 2 187 187 187
5 5 2 187 187 187
6 5 2 187 187 187
7 5 2 187 187 187
8 5 2 187 187 187
9 5 2 187 187 187
10 5 2 187 187 187
5 -7 3 187 187 187
5 -6 3 187 187 187
-12 -5 3 187 187 187
-11 -5 3 187 187 187
-10 -5 3 187 187 187
-9 -5 3 187 187 187
-8 -5 3 187 187 187
-7 -5 3 187 187 187
-6 -5 3 187 187 187
-5 -5 3 187 187 187
-4 -5 3 187 187 187
-3 -5 3 187 187 187
-2 -5 3 187 187 187
-1 -5 3 187 187 187
0 -5 3 187 187 187
1 -5 3 187 187 187
2 -5 3 187 187 187
3 -5 3 187 187 187
4 -5 3 187 187 187
5 -5 3 187 187 187
6 -5 3 187 187 187
7 -5 3 187 187 187
8 -5 3 187 187 187
9 -5 3 187 187 187
10 -5 3 187 187 187
-12 -4 3 187 187 187
-9 -4 3 187 187 187
-8 -4 3 187 187 187
-7 -4 3 187 187 187
-6 -4 3 187 187 187
-5 -4 3 187 187 187
-4 -4 3 187 187 187
-1 -4 3 187 187 187
0 -4 3 187 187 187
3 -4 3 0 51 102
4 -4 3 187 187 187
5 -4 3 187 187 187
6 -4 3 187 187 187
7 -4 3 0 51 102
10 -4 3 187 187 187
-12 -3 3 187 187 187
-10 -3 3 187 187 187
-9 -3 3 187 187 187
-8 -3 3 187 187 187
-7 -3 3 187 187 187
-6 -3 3 187 187 187
-5 -3 3 187 187 187
-4 -3 3 187 187 187
-3 -3 3 187 187 187
-2 -3 3 238 0 0
-1 -3 3 187 187 187
0 -3 3 187 187 187
3 -3 3 187 187 187
4 -3 3 187 187 187
5 -3 3 187 187 187
6 -3 3 187 187 187
7 -3 3 187 187 187
10 -3 3 187 187 187
-12 -2 3 187 187 187
-10 -2 3 0 51 102
-9 -2 3 187 187 187
-8 -2 3 187 187 187
-7 -2 3 68 68 68
-1 -2 3 187 187 187
0 -2 3 187 187 187
10 -2 3 187 187 187
-12 -1 3 187 187 187
-11 -1 3 187 187 187
-10 -1 3 187 187 187
-9 -1 3 187 187 187
-8 -1 3 187 187 187
-7 -1 3 68 68 68
-1 -1 3 187 187 187
0 -1 3 187 187 187
10 -1 3 187 187 187
-12 0 3 187 187 187
-8 0 3 187 187 187
-7 0 3 68 68 68
-12 1 3 187 187 187
-11 1 3 187 187 187
-10 1 3 187 187 187
-9 1 3 187 187 187
-8 1 3 187 187 187
-7 1 3 68 68 68
-1 1 3 187 187 187
0 1 3 187 187 187
10 1 3 187 187 187
-12 2 3 187 187 187
-10 2 3 0 51 102
-9 2 3 187 187 187
-8 2 3 187 187 187
-7 2 3 68 68 68
-1 2 3 187 187 187
0 2 3 187 187 187
10 2 3 187 187 187
-12 3 3 187 187 187
-10 3 3 187 187 187
-9 3 3 187 187 187
-8 3 3 187 187 187
-7 3 3 187 187 187
-6 3 3 187 187 187
-5 3 3 187 187 187
-4 3 3 187 187 187
-3 3 3 187 187 187
-1 3 3 187 187 187
0 3 3 187 187 187
3 3 3 187 187 187
4 3 3 187 187 187
5 3 3 187 187 187
6 3 3 187 187 187
7 3 3 187 187 187
10 3 3 187 187 187
-12 4 3 187 187 187
-9 4 3 187 187 187
-8 4 3 187 187 187
-7 4 3 187 187 187
-6 4 3 187 187 187
-5 4 3 187 187 187
-1 4 3 187 187 187
0 4 3 187 187 187
3 4 3 0 51 102
4 4 3 187 187 187
5 4 3 187 187 187
6 4 3 187 187 187
7 4 3 0 51 102
10 4 3 187 187 187
-12 5 3 187 187 187
-11 5 3 187 187 187
-10 5 3 187 187 187
-9 5 3 187 187 187
-8 5 3 187 187 187
-7 5 3 187 187 187
-6 5 3 187 187 187
-5 5 3 187 187 187
-4 5 3 187 187 187
-3 5 3 187 187 187
-2 5 3 187 187 187
-1 5 3 187 187 187
0 5 3 187 187 187
1 5 3 187 187 187
2 5 3 187 187 187
3 5 3 187 187 187
4 5 3 187 187 187
5 5 3 187 187 187
6 5 3 187 187 187
7 5 3 187 187 187
8 5 3 187 187 187
9 5 3 187 187 187
10 5 3 187 187 187
5 6 3 187 187 187
5 7 3 187 187 187
2 -8 4 187 187 187
3 -8 4 187 187 187
4 -8 4 187 187 187
5 -8 4 187 187 187
6 -8 4 187 187 187
7 -8 4 187 187 187
8 -8 4 187 187 187
4 -7 4 187 187 187
5 -7 4 0 51 102
6 -7 4 187 187 187
4 -6 4 187 187 187
6 -6 4 187 187 187
-12 -5 4 187 187 187
-11 -5 4 187 187 187
-10 -5 4 187 187 187
-9 -5 4 187 187 187
-8 -5 4 187 187 187
-7 -5 4 187 187 187
-6 -5 4 187 187 187
-5 -5 4 187 187 187
-4 -5 4 187 187 187
-3 -5 4 187 187 187
-2 -5 4 187 187 187
-1 -5 4 187 187 187
0 -5 4 187 187 187
1 -5 4 187 187 187
2 -5 4 187 187 187
3 -5 4 187 187 187
4 -5 4 187 187 187
5 -5 4 238 0 0
6 -5 4 187 187 187
7 -5 4 187 187 187
8 -5 4 187 187 187
9 -5 4 187 187 187
10 -5 4 187 187 187
-12 -4 4 187 187 187
-11 -4 4 187 187 187
-10 -4 4 187 187 187
-9 -4 4 187 187 187
-5 -4 4 187 187 187
-4 -4 4 187 187 187
-3 -4 4 187 187 187
-2 -4 4 187 187 187
-1 -4 4 187 187 187
0 -4 4 187 187 187
10 -4 4 187 187 187
-12 -3 4 187 187 187
-11 -3 4 187 187 187
-10 -3 4 187 187 187
-9 -3 4 187 187 187
-8 -3 4 187 187 187
-7 -3 4 187 187 187
-6 -3 4 187 187 187
-5 -3 4 187 187 187
-4 -3 4 187 187 187
-3 -3 4 187 187 187
-2 -3 4 187 187 187
-1 -3 4 187 187 187
0 -3 4 187 187 187
3 -3 4 187 187 187
7 -3 4 187 187 187
10 -3 4 187 187 187
-12 -2 4 187 187 187
-8 -2 4 238 0 0
-2 -2 4 187 187 187
-1 -2 4 187 187 187
0 -2 4 187 187 187
10 -2 4 187 187 187
-12 -1 4 187 187 187
-11 -1 4 187 187 187
-10 -1 4 187 187 187
-9 -1 4 187 187 187
-8 -1 4 187 187 187
-2 -1 4 187 187 187
-1 -1 4 187 187 187
0 -1 4 187 187 187
10 -1 4 187 187 187
-12 0 4 187 187 187
-8 0 4 187 187 187
-2 0 4 187 187 187
-1 0 4 187 187 187
0 0 4 187 187 187
10 0 4 187 187 187
-12 1 4 187 187 187
-11 1 4 187 187 187
-10 1 4 187 187 187
-9 1 4 187 187 187
-8 1 4 187 187 187
-2 1 4 187 187 187
-1 1 4 187 187 187
0 1 4 187 187 187
10 1 4 187 187 187
-12 2 4 187 187 187
-2 2 4 187 187 187
-1 2 4 187 187 187
0 2 4 187 187 187
10 2 4 187 187 187
-12 3 4 187 187 187
-11 3 4 187 187 187
-10 3 4 187 187 187
-9 3 4 187 187 187
-8 3 4 187 187 187
-7 3 4 187 187 187
-6 3 4 187 187 187
-5 3 4 187 187 187
-4 3 4 187 187 187
-3 3 4 187 187 187
-2 3 4 187 187 187
-1 3 4 187 187 187
0 3 4 187 187 187
3 3 4 187 187 187
7 3 4 187 187 187
10 3 4 187 187 187
-12 4 4 187 187 187
-11 4 4 187 187 187
-10 4 4 187 187 187
-9 4 4 187 187 187
-5 4 4 187 187 187
-4 4 4 187 187 187
-3 4 4 187 187 187
-2 4 4 187 187 187
-1 4 4 187 187 187
0 4 4 187 187 187
10 4 4 187 187 187
-12 5 4 187 187 187
-11 5 4 187 187 187
-10 5 4 187 187 187
-9 5 4 187 187 187
-8 5 4 187 187 187
-7 5 4 187 187 187
-6 5 4 187 187 187
-5 5 4 187 187 187
-4 5 4 187 187 187
-3 5 4 187 187 187
-2 5 4 187 187 187
-1 5 4 187 187 187
0 5 4 187 187 187
1 5 4 187 187 187
2 5 4 187 187 187
3 5 4 187 187 187
4 5 4 187 187 187
5 5 4 238 0 0
6 5 4 187 187 187
7 5 4 187 187 187
8 5 4 187 187 187
9 5 4 187 187 187
10 5 4 187 187 187
4 6 4 187 187 187
6 6 4 187 187 187
4 7 4 187 187 187
5 7 4 0 51 102
6 7 4 187 187 187
2 8 4 187 187 187
3 8 4 187 187 187
4 8 4 187 187 187
5 8 4 187 187 187
6 8 4 187 187 187
7 8 4 187 187 187
8 8 4 187 187 187
0 -9 5 187 187 187
1 -9 5 187 187 187
2 -9 5 187 187 187
3 -9 5 187 187 187
4 -9 5 187 187 187
5 -9 5 187 187 187
6 -9 5 187 187 187
7 -9 5 187 187 187
8 -9 5 187 187 187
9 -9 5 187 187 187
10 -9 5 187 187 187
0 -8 5 187 187 187
1 -8 5 187 187 187
2 -8 5 0 51 102
4 -8 5 238 0 0
6 -8 5 238 0 0
8 -8 5 0 51 102
9 -8 5 187 187 187
10 -8 5 187 187 187
0 -7 5 187 187 187
1 -7 5 187 187 187
2 -7 5 187 187 187
3 -7 5 187 187 187
4 -7 5 187 187 187
6 -7 5 187 187 187
7 -7 5 187 187 187
8 -7 5 187 187 187
9 -7 5 187 187 187
10 -7 5 187 187 187
0 -6 5 187 187 187
1 -6 5 187 187 187
2 -6 5 187 187 187
4 -6 5 187 187 187
7 -6 5 187 187 187
8 -6 5 187 187 187
9 -6 5 187 187 187
10 -6 5 187 187 187
-12 -5 5 187 187 187
-11 -5 5 187 187 187
-10 -5 5 187 187 187
-9 -5 5 187 187 187
-8 -5 5 187 187 187
-7 -5 5 187 187 187
-6 -5 5 187 187 187
-5 -5 5 187 187 187
-4 -5 5 187 187 187
-3 -5 5 187 187 187
-2 -5 5 187 187 187
-1 -5 5 187 187 187
0 -5 5 187 187 187
1 -5 5 187 187 187
2 -5 5 187 187 187
3 -5 5 187 187 187
4 -5 5 187 187 187
5 -5 5 187 187 187
6 -5 5 187 187 187
7 -5 5 187 187 187
8 -5 5 187 187 187
9 -5 5 187 187 187
10 -5 5 187 187 187
-12 -4 5 187 187 187
-11 -4 5 187 187 187
-10 -4 5 187 187 187
-9 -4 5 187 187 187
-8 -4 5 187 187 187
-7 -4 5 187 187 187
-6 -4 5 187 187 187
-5 -4 5 187 187 187
-4 -4 5 187 187 187
-3 -4 5 187 187 187
-2 -4 5 187 187 187
-1 -4 5 187 187 187
0 -4 5 187 187 187
1 -4 5 68 68 68
9 -4 5 68 68 68
10 -4 5 187 187 187
-12 -3 5 187 187 187
-11 -3 5 187 187 187
-10 -3 5 187 187 187
-9 -3 5 187 187 187
-8 -3 5 187 187 187
-7 -3 5 187 187 187
-6 -3 5 187 187 187
-5 -3 5 187 187 187
-4 -3 5 187 187 187
-3 -3 5 187 187 187
-2 -3 5 187 187 187
-1 -3 5 187 187 187
0 -3 5 187 187 187
1 -3 5 68 68 68
3 -3 5 187 187 187
7 -3 5 187 187 187
9 -3 5 68 68 68
10 -3 5 187 187 187
11 -3 5 187 187 187
-12 -2 5 187 187 187
-11 -2 5 187 187 187
-10 -2 5 187 187 187
-9 -2 5 187 187 187
-8 -2 5 187 187 187
-2 -2 5 187 187 187
-1 -2 5 187 187 187
0 -2 5 187 187 187
1 -2 5 68 68 68
9 -2 5 68 68 68
10 -2 5 187 187 187
11 -2 5 187 187 187
12 -2 5 187 187 187
-12 -1 5 187 187 187
-11 -1 5 187 187 187
-10 -1 5 187 187 187
-9 -1 5 187 187 187
-8 -1 5 187 187 187
-2 -1 5 187 187 187
-1 -1 5 187 187 187
0 -1 5 187 187 187
10 -1 5 187 187 187
11 -1 5 187 187 187
-12 0 5 187 187 187
-11 0 5 187 187 187
-10 0 5 187 187 187
-9 0 5 187 187 187
-8 0 5 187 187 187
-2 0 5 187 187 187
-1 0 5 187 187 187
0 0 5 187 187 187
10 0 5 187 187 187
-12 1 5 187 187 187
-11 1 5 187 187 187
-10 1 5 187 187 187
-9 1 5 187 187 187
-8 1 5 187 187 187
-2 1 5 187 187 187
-1 1 5 187 187 187
0 1 5 187 187 187
10 1 5 187 187 187
11 1 5 187 187 187
-12 2 5 187 187 187
-11 2 5 187 187 187
-10 2 5 187 187 187
-9 2 5 187 187 187
-8 2 5 187 187 187
-2 2 5 187 187 187
-1 2 5 187 187 187
0 2 5 187 187 187
1 2 5 68 68 68
9 2 5 68 68 68
10 2 5 187 187 187
11 2 5 187 187 187
12 2 5 187 187 187
-12 3 5 187 187 187
-11 3 5 187 187 187
-10 3 5 187 187 187
-9 3 5 187 187 187
-8 3 5 187 187 187
-7 3 5 187 187 187
-6 3 5 187 187 187
-5 3 5 187 187 187
-4 3 5 187 187 187
-3 3 5 187 187 187
-2 3 5 187 187 187
-1 3 5 187 187 187
0 3 5 187 187 187
1 3 5 68 68 68
3 3 5 187 187 187
7 3 5 187 187 187
9 3 5 68 68 68
10 3 5 187 187 187
11 3 5 187 187 187
-12 4 5 187 187 187
-11 4 5 187 187 187
-10 4 5 187 187 187
-9 4 5 187 187 187
-8 4 5 187 187 187
-7 4 5 187 187 187
-6 4 5 187 187 187
-5 4 5 187 187 187
-4 4 5 187 187 187
-3 4 5 187 187 187
-2 4 5 187 187 187
-1 4 5 187 187 187
0 4 5 187 187 187
1 4 5 68 68 68
9 4 5 68 68 68
10 4 5 187 187 187
-12 5 5 187 187 187
-11 5 5 187 187 187
-10 5 5 187 187 187
-9 5 5 187 187 187
-8 5 5 187 187 187
-7 5 5 187 187 187
-6 5 5 187 187 187
-5 5 5 187 187 187
-4 5 5 187 187 187
-3 5 5 187 187 187
-2 5 5 187 187 187
-1 5 5 187 187 187
0 5 5 187 187 187
1 5 5 187 187 187
2 5 5 187 187 187
3 5 5 187 187 187
4 5 5 187 187 187
5 5 5 187 187 187
6 5 5 187 187 187
7 5 5 187 187 187
8 5 5 187 187 187
9 5 5 187 187 187
10 5 5 187 187 187
0 6 5 187 187 187
1 6 5 187 187 187
2 6 5 187 187 187
4 6 5 187 187 187
7 6 5 187 187 187
8 6 5 187 187 187
9 6 5 187 187 187
10 6 5 187 187 187
0 7 5 187 187 187
1 7 5 187 187 187
2 7 5 187 187 187
3 7 5 187 187 187
4 7 5 187 187 187
6 7 5 187 187 187
7 7 5 187 187 187
8 7 5 187 187 187
9 7 5 187 187 187
10 7 5 187 187 187
0 8 5 187 187 187
1 8 5 187 187 187
2 8 5 0 51 102
4 8 5 238 0 0
6 8 5 238 0 0
8 8 5 0 51 102
9 8 5 187 187 187
10 8 5 187 187 187
0 9 5 187 187 187
1 9 5 187 187 187
2 9 5 187 187 187
3 9 5 187 187 187
4 9 5 187 187 187
5 9 5 187 187 187
6 9 5 187 187 187
7 9 5 187 187 187
8 9 5 187 187 187
9 9 5 187 187 187
10 9 5 187 187 187
0 -9 6 187 187 187
1 -9 6 187 187 187
2 -9 6 187 187 187
3 -9 6 187 187 187
4 -9 6 187 187 187
5 -9 6 187 187 187
6 -9 6 187 187 187
7 -9 6 187 187 187
8 -9 6 187 187 187
9 -9 6 187 187 187
10 -9 6 187 187 187
0 -8 6 187 187 187
10 -8 6 187 187 187
0 -7 6 187 187 187
1 -7 6 238 0 0
2 -7 6 187 187 187
5 -7 6 187 187 187
8 -7 6 187 187 187
9 -7 6 238 0 0
10 -7 6 187 187 187
0 -6 6 187 187 187
2 -6 6 0 51 102
3 -6 6 187 187 187
5 -6 6 187 187 187
7 -6 6 187 187 187
8 -6 6 0 51 102
10 -6 6 187 187 187
0 -5 6 187 187 187
1 -5 6 238 0 0
2 -5 6 187 187 187
3 -5 6 187 187 187
4 -5 6 187 187 187
5 -5 6 187 187 187
6 -5 6 187 187 187
7 -5 6 187 187 187
8 -5 6 187 187 187
9 -5 6 238 0 0
10 -5 6 187 187 187
0 -4 6 187 187 187
3 -4 6 187 187 187
4 -4 6 187 187 187
5 -4 6 68 68 68
6 -4 6 187 187 187
7 -4 6 187 187 187
10 -4 6 187 187 187
0 -3 6 187 187 187
3 -3 6 187 187 187
4 -3 6 68 68 68
5 -3 6 68 68 68
6 -3 6 68 68 68
7 -3 6 187 187 187
10 -3 6 187 187 187
11 -3 6 187 187 187
12 -3 6 187 187 187
13 -3 6 187 187 187
14 -3 6 187 187 187
0 -2 6 187 187 187
10 -2 6 238 0 0
12 -2 6 0 51 102
13 -2 6 187 187 187
14 -2 6 187 187 187
0 -1 6 187 187 187
10 -1 6 187 187 187
11 -1 6 187 187 187
12 -1 6 187 187 187
13 -1 6 187 187 187
14 -1 6 187 187 187
0 0 6 187 187 187
1 0 6 68 68 68
2 0 6 68 68 68
3 0 6 68 68 68
4 0 6 68 68 68
5 0 6 68 68 68
6 0 6 68 68 68
7 0 6 68 68 68
8 0 6 68 68 68
9 0 6 68 68 68
10 0 6 187 187 187
12 0 6 187 187 187
13 0 6 187 187 187
14 0 6 187 187 187
0 1 6 187 187 187
10 1 6 187 187 187
11 1 6 187 187 187
12 1 6 187 187 187
13 1 6 187 187 187
14 1 6 187 187 187
0 2 6 187 187 187
10 2 6 238 0 0
12 2 6 0 51 102
13 2 6 187 187 187
14 2 6 187 187 187
0 3 6 187 187 187
3 3 6 187 187 187
4 3 6 68 68 68
5 3 6 68 68 68
6 3 6 68 68 68
7 3 6 187 187 187
10 3 6 187 187 187
11 3 6 187 187 187
12 3 6 187 187 187
13 3 6 187 187 187
14 3 6 187 187 187
0 4 6 187 187 187
3 4 6 187 187 187
4 4 6 187 187 187
5 4 6 68 68 68
6 4 6 187 187 187
7 4 6 187 187 187
10 4 6 187 187 187
0 5 6 187 187 187
1 5 6 238 0 0
2 5 6 187 187 187
3 5 6 187 187 187
4 5 6 187 187 187
5 5 6 187 187 187
6 5 6 187 187 187
7 5 6 187 187 187
8 5 6 187 187 187
9 5 6 238 0 0
10 5 6 187 187 187
0 6 6 187 187 187
2 6 6 0 51 102
3 6 6 187 187 187
5 6 6 187 187 187
7 6 6 187 187 187
8 6 6 0 51 102
10 6 6 187 187 187
0 7 6 187 187 187
1 7 6 238 0 0
2 7 6 187 187 187
5 7 6 187 187 187
8 7 6 187 187 187
9 7 6 238 0 0
10 7 6 187 187 187
0 8 6 187 187 187
10 8 6 187 187 187
0 9 6 187 187 187
1 9 6 187 187 187
2 9 6 187 187 187
3 9 6 187 187 187
4 9 6 187 187 187
5 9 6 187 187 187
6 9 6 187 187 187
7 9 6 187 187 187
8 9 6 187 187 187
9 9 6 187 187 187
10 9 6 187 187 187
0 -9 7 187 187 187
1 -9 7 187 187 187
2 -9 7 187 187 187
3 -9 7 187 187 187
4 -9 7 187 187 187
5 -9 7 187 187 187
6 -9 7 187 187 187
7 -9 7 187 187 187
8 -9 7 187 187 187
9 -9 7 187 187 187
10 -9 7 187 187 187
0 -8 7 187 187 187
3 -8 7 187 187 187
4 -8 7 187 187 187
5 -8 7 187 187 187
6 -8 7 187 187 187
7 -8 7 187 187 187
10 -8 7 187 187 187
0 -7 7 187 187 187
3 -7 7 187 187 187
4 -7 7 187 187 187
5 -7 7 0 51 102
6 -7 7 187 187 187
7 -7 7 187 187 187
10 -7 7 187 187 187
0 -6 7 187 187 187
10 -6 7 187 187 187
0 -5 7 187 187 187
1 -5 7 187 187 187
2 -5 7 187 187 187
3 -5 7 238 0 0
4 -5 7 187 187 187
5 -5 7 238 0 0
6 -5 7 187 187 187
7 -5 7 238 0 0
8 -5 7 187 187 187
9 -5 7 187 187 187
10 -5 7 187 187 187
0 -4 7 187 187 187
10 -4 7 187 187 187
0 -3 7 187 187 187
10 -3 7 187 187 187
11 -3 7 187 187 187
12 -3 7 187 187 187
13 -3 7 187 187 187
14 -3 7 187 187 187
0 -2 7 187 187 187
10 -2 7 187 187 187
14 -2 7 187 187 187
0 -1 7 187 187 187
10 -1 7 187 187 187
11 -1 7 187 187 187
12 -1 7 187 187 187
13 -1 7 238 0 0
14 -1 7 187 187 187
0 0 7 187 187 187
1 0 7 68 68 68
2 0 7 68 68 68
3 0 7 68 68 68
4 0 7 68 68 68
5 0 7 68 68 68
6 0 7 68 68 68
7 0 7 68 68 68
8 0 7 68 68 68
9 0 7 68 68 68
10 0 7 187 187 187
11 0 7 187 187 187
12 0 7 0 51 102
14 0 7 187 187 187
0 1 7 187 187 187
10 1 7 187 187 187
11 1 7 187 187 187
12 1 7 187 187 187
13 1 7 238 0 0
14 1 7 187 187 187
0 2 7 187 187 187
10 2 7 187 187 187
14 2 7 187 187 187
0 3 7 187 187 187
10 3 7 187 187 187
11 3 7 187 187 187
12 3 7 187 187 187
13 3 7 187 187 187
14 3 7 187 187 187
0 4 7 187 187 187
10 4 7 187 187 187
0 5 7 187 187 187
1 5 7 187 187 187
2 5 7 187 187 187
3 5 7 238 0 0
4 5 7 187 187 187
5 5 7 238 0 0
6 5 7 187 187 187
7 5 7 238 0 0
8 5 7 187 187 187
9 5 7 187 187 187
10 5 7 187 187 187
0 6 7 187 187 187
10 6 7 187 187 187
0 7 7 187 187 187
3 7 7 187 187 187
4 7 7 187 187 187
5 7 7 0 51 102
6 7 7 187 187 187
7 7 7 187 187 187
10 7 7 187 187 187
0 8 7 187 187 187
3 8 7 187 187 187
4 8 7 187 187 187
5 8 7 187 187 187
6 8 7 187 187 187
7 8 7 187 187 187
10 8 7 187 187 187
0 9 7 187 187 187
1 9 7 187 187 187
2 9 7 187 187 187
3 9 7 187 187 187
4 9 7 187 187 187
5 9 7 187 187 187
6 9 7 187 187 187
7 9 7 187 187 187
8 9 7 187 187 187
9 9 7 187 187 187
10 9 7 187 187 187
0 -9 8 187 187 187
1 -9 8 187 187 187
2 -9 8 187 187 187
3 -9 8 187 187 187
4 -9 8 187 187 187
5 -9 8 187 187 187
6 -9 8 187 187 187
7 -9 8 187 187 187
8 -9 8 187 187 187
9 -9 8 187 187 187
10 -9 8 187 187 187
0 -8 8 187 187 187
4 -8 8 238 0 0
6 -8 8 238 0 0
10 -8 8 187 187 187
0 -7 8 187 187 187
2 -7 8 187 187 187
3 -7 8 0 51 102
4 -7 8 187 187 187
6 -7 8 187 187 187
7 -7 8 0 51 102
8 -7 8 187 187 187
10 -7 8 187 187 187
0 -6 8 187 187 187
2 -6 8 187 187 187
3 -6 8 187 187 187
4 -6 8 187 187 187
6 -6 8 187 187 187
7 -6 8 187 187 187
8 -6 8 187 187 187
10 -6 8 187 187 187
0 -5 8 187 187 187
1 -5 8 187 187 187
2 -5 8 187 187 187
3 -5 8 187 187 187
4 -5 8 187 187 187
5 -5 8 187 187 187
6 -5 8 187 187 187
7 -5 8 187 187 187
8 -5 8 187 187 187
9 -5 8 187 187 187
10 -5 8 187 187 187
0 -4 8 187 187 187
1 -4 8 68 68 68
2 -4 8 68 68 68
3 -4 8 68 68 68
7 -4 8 68 68 68
8 -4 8 68 68 68
9 -4 8 68 68 68
10 -4 8 187 187 187
11 -4 8 187 187 187
12 -4 8 187 187 187
0 -3 8 187 187 187
10 -3 8 187 187 187
11 -3 8 187 187 187
12 -3 8 187 187 187
13 -3 8 187 187 187
14 -3 8 187 187 187
0 -2 8 187 187 187
10 -2 8 187 187 187
14 -2 8 187 187 187
0 -1 8 187 187 187
10 -1 8 187 187 187
11 -1 8 187 187 187
12 -1 8 187 187 187
13 -1 8 187 187 187
14 -1 8 187 187 187
10 0 8 238 0 0
14 0 8 187 187 187
0 1 8 187 187 187
10 1 8 187 187 187
11 1 8 187 187 187
12 1 8 187 187 187
13 1 8 187 187 187
14 1 8 187 187 187
0 2 8 187 187 187
10 2 8 187 187 187
14 2 8 187 187 187
0 3 8 187 187 187
10 3 8 187 187 187
11 3 8 187 187 187
12 3 8 187 187 187
13 3 8 187 187 187
14 3 8 187 187 187
0 4 8 187 187 187
1 4 8 68 68 68
2 4 8 68 68 68
3 4 8 68 68 68
7 4 8 68 68 68
8 4 8 68 68 68
9 4 8 68 68 68
10 4 8 187 187 187
11 4 8 187 187 187
12 4 8 187 187 187
0 5 8 187 187 187
1 5 8 187 187 187
2 5 8 187 187 187
3 5 8 187 187 187
4 5 8 187 187 187
5 5 8 187 187 187
6 5 8 187 187 187
7 5 8 187 187 187
8 5 8 187 187 187
9 5 8 187 187 187
10 5 8 187 187 187
0 6 8 187 187 187
2 6 8 187 187 187
3 6 8 187 187 187
4 6 8 187 187 187
6 6 8 187 187 187
7 6 8 187 187 187
8 6 8 187 187 187
10 6 8 187 187 187
0 7 8 187 187 187
2 7 8 187 187 187
3 7 8 0 51 102
4 7 8 187 187 187
6 7 8 187 187 187
7 7 8 0 51 102
8 7 8 187 187 187
10 7 8 187 187 187
0 8 8 187 187 187
4 8 8 238 0 0
6 8 8 238 0 0
10 8 8 187 187 187
0 9 8 187 187 187
1 9 8 187 187 187
2 9 8 187 187 187
3 9 8 187 187 187
4 9 8 187 187 187
5 9 8 187 187 187
6 9 8 187 187 187
7 9 8 187 187 187
8 9 8 187 187 187
9 9 8 187 187 187
10 9 8 187 187 187
0 -9 9 187 187 187
1 -9 9 187 187 187
2 -9 9 187 187 187
3 -9 9 187 187 187
4 -9 9 187 187 187
5 -9 9 187 187 187
6 -9 9 187 187 187
7 -9 9 187 187 187
8 -9 9 187 187 187
9 -9 9 187 187 187
10 -9 9 187 187 187
0 -8 9 187 187 187
10 -8 9 187 187 187
0 -7 9 187 187 187
2 -7 9 187 187 187
4 -7 9 187 187 187
6 -7 9 187 187 187
8 -7 9 187 187 187
10 -7 9 187 187 187
0 -6 9 187 187 187
2 -6 9 187 187 187
4 -6 9 187 187 187
6 -6 9 187 187 187
8 -6 9 187 187 187
10 -6 9 187 187 187
0 -5 9 187 187 187
1 -5 9 187 187 187
2 -5 9 187 187 187
3 -5 9 238 0 0
4 -5 9 187 187 187
5 -5 9 187 187 187
6 -5 9 187 187 187
7 -5 9 238 0 0
8 -5 9 187 187 187
9 -5 9 187 187 187
10 -5 9 187 187 187
11 -5 9 187 187 187
12 -5 9 187 187 187
0 -4 9 187 187 187
10 -4 9 238 0 0
12 -4 9 0 51 102
13 -4 9 187 187 187
0 -3 9 187 187 187
10 -3 9 187 187 187
11 -3 9 187 187 187
12 -3 9 187 187 187
13 -3 9 187 187 187
0 -2 9 187 187 187
10 -2 9 187 187 187
13 -2 9 187 187 187
0 -1 9 187 187 187
10 -1 9 187 187 187
0 0 9 187 187 187
10 0 9 187 187 187
11 0 9 187 187 187
12 0 9 187 187 187
13 0 9 187 187 187
0 1 9 187 187 187
10 1 9 187 187 187
0 2 9 187 187 187
10 2 9 187 187 187
13 2 9 187 187 187
0 3 9 187 187 187
10 3 9 187 187 187
11 3 9 187 187 187
12 3 9 187 187 187
13 3 9 187 187 187
0 4 9 187 187 187
10 4 9 238 0 0
12 4 9 0 51 102
13 4 9 187 187 187
0 5 9 187 187 187
1 5 9 187 187 187
2 5 9 187 187 187
3 5 9 238 0 0
4 5 9 187 187 187
5 5 9 187 187 187
6 5 9 187 187 187
7 5 9 238 0 0
8 5 9 187 187 187
9 5 9 187 187 187
10 5 9 187 187 187
11 5 9 187 187 187
12 5 9 187 187 187
0 6 9 187 187 187
2 6 9 187 187 187
4 6 9 187 187 187
6 6 9 187 187 187
8 6 9 187 187 187
10 6 9 187 187 187
0 7 9 187 187 187
2 7 9 187 187 187
4 7 9 187 187 187
6 7 9 187 187 187
8 7 9 187 187 187
10 7 9 187 187 187
0 8 9 187 187 187
10 8 9 187 187 187
0 9 9 187 187 187
1 9 9 187 187 187
2 9 9 187 187 187
3 9 9 187 187 187
4 9 9 187 187 187
5 9 9 187 187 187
6 9 9 187 187 187
7 9 9 187 187 187
8 9 9 187 187 187
9 9 9 187 187 187
10 9 9 187 187 187
0 -9 10 187 187 187
1 -9 10 187 187 187
2 -9 10 187 187 187
3 -9 10 187 187 187
4 -9 10 187 187 187
5 -9 10 187 187 187
6 -9 10 187 187 187
7 -9 10 187 187 187
8 -9 10 187 187 187
9 -9 10 187 187 187
10 -9 10 187 187 187
0 -8 10 187 187 187
1 -8 10 187 187 187
2 -8 10 187 187 187
3 -8 10 187 187 187
4 -8 10 187 187 187
5 -8 10 187 187 187
6 -8 10 187 187 187
7 -8 10 187 187 187
8 -8 10 187 187 187
9 -8 10 187 187 187
10 -8 10 187 187 187
0 -7 10 187 187 187
1 -7 10 187 187 187
2 -7 10 187 187 187
3 -7 10 187 187 187
4 -7 10 187 187 187
5 -7 10 187 187 187
6 -7 10 187 187 187
7 -7 10 187 187 187
8 -7 10 187 187 187
9 -7 10 187 187 187
10 -7 10 187 187 187
0 -6 10 187 187 187
1 -6 10 187 187 187
2 -6 10 187 187 187
3 -6 10 187 187 187
4 -6 10 187 187 187
5 -6 10 187 187 187
6 -6 10 187 187 187
7 -6 10 187 187 187
8 -6 10 187 187 187
9 -6 10 187 187 187
10 -6 10 187 187 187
0 -5 10 187 187 187
1 -5 10 187 187 187
2 -5 10 187 187 187
3 -5 10 187 187 187
4 -5 10 187 187 187
5 -5 10 187 187 187
6 -5 10 187 187 187
7 -5 10 187 187 187
8 -5 10 187 187 187
9 -5 10 187 187 187
10 -5 10 187 187 187
11 -5 10 187 187 187
12 -5 10 187 187 187
13 -5 10 187 187 187
0 -4 10 187 187 187
10 -4 10 187 187 187
14 -4 10 187 187 187
0 -3 10 187 187 187
10 -3 10 187 187 187
11 -3 10 187 187 187
12 -3 10 187 187 187
14 -3 10 187 187 187
0 -2 10 187 187 187
10 -2 10 187 187 187
11 -2 10 187 187 187
12 -2 10 187 187 187
13 -2 10 0 51 102
14 -2 10 187 187 187
0 -1 10 187 187 187
9 -1 10 68 68 68
10 -1 10 187 187 187
13 -1 10 187 187 187
14 -1 10 187 187 187
0 0 10 187 187 187
9 0 10 68 68 68
10 0 10 187 187 187
12 0 10 187 187 187
13 0 10 187 187 187
14 0 10 187 187 187
0 1 10 187 187 187
9 1 10 68 68 68
10 1 10 187 187 187
13 1 10 187 187 187
14 1 10 187 187 187
0 2 10 187 187 187
10 2 10 187 187 187
11 2 10 187 187 187
12 2 10 187 187 187
13 2 10 0 51 102
14 2 10 187 187 187
0 3 10 187 187 187
10 3 10 187 187 187
11 3 10 187 187 187
12 3 10 187 187 187
14 3 10 187 187 187
0 4 10 187 187 187
10 4 10 187 187 187
14 4 10 187 187 187
0 5 10 187 187 187
1 5 10 187 187 187
2 5 10 187 187 187
3 5 10 187 187 187
4 5 10 187 187 187
5 5 10 187 187 187
6 5 10 187 187 187
7 5 10 187 187 187
8 5 10 187 187 187
9 5 10 187 187 187
10 5 10 187 187 187
11 5 10 187 187 187
12 5 10 187 187 187
13 5 10 187 187 187
0 6 10 187 187 187
1 6 10 187 187 187
2 6 10 187 187 187
3 6 10 187 187 187
4 6 10 187 187 187
5 6 10 187 187 187
6 6 10 187 187 187
7 6 10 187 187 187
8 6 10 187 187 187
9 6 10 187 187 187
10 6 10 187 187 187
0 7 10 187 187 187
1 7 10 187 187 187
2 7 10 187 187 187
3 7 10 187 187 187
4 7 10 187 187 187
5 7 10 187 187 187
6 7 10 187 187 187
7 7 10 187 187 187
8 7 10 187 187 187
9 7 10 187 187 187
10 7 10 187 187 187
0 8 10 187 187 187
1 8 10 187 187 187
2 8 10 187 187 187
3 8 10 187 187 187
4 8 10 187 187 187
5 8 10 187 187 187
6 8 10 187 187 187
7 8 10 187 187 187
8 8 10 187 187 187
9 8 10 187 187 187
10 8 10 187 187 187
0 9 10 187 187 187
1 9 10 187 187 187
2 9 10 187 187 187
3 9 10 187 187 187
4 9 10 187 187 187
5 9 10 187 187 187
6 9 10 187 187 187
7 9 10 187 187 187
8 9 10 187 187 187
9 9 10 187 187 187
10 9 10 187 187 187
10 -5 11 187 187 187
11 -5 11 187 187 187
12 -5 11 187 187 187
13 -5 11 187 187 187
10 -4 11 187 187 187
11 -4 11 187 187 187
12 -4 11 187 187 187
14 -4 11 187 187 187
10 -3 11 187 187 187
11 -3 11 187 187 187
12 -3 11 187 187 187
14 -3 11 187 187 187
10 -2 11 187 187 187
12 -2 11 187 187 187
14 -2 11 187 187 187
9 -1 11 68 68 68
10 -1 11 187 187 187
11 -1 11 187 187 187
12 -1 11 187 187 187
14 -1 11 187 187 187
9 0 11 68 68 68
10 0 11 187 187 187
11 0 11 187 187 187
12 0 11 0 51 102
14 0 11 187 187 187
9 1 11 68 68 68
10 1 11 187 187 187
11 1 11 187 187 187
12 1 11 187 187 187
14 1 11 187 187 187
10 2 11 187 187 187
12 2 11 187 187 187
14 2 11 187 187 187
10 3 11 187 187 187
11 3 11 187 187 187
12 3 11 187 187 187
14 3 11 187 187 187
10 4 11 187 187 187
11 4 11 187 187 187
12 4 11 187 187 187
14 4 11 187 187 187
10 5 11 187 187 187
11 5 11 187 187 187
12 5 11 187 187 187
13 5 11 187 187 187
10 -5 12 187 187 187
11 -5 12 187 187 187
12 -5 12 187 187 187
13 -5 12 187 187 187
10 -4 12 187 187 187
14 -4 12 187 187 187
10 -3 12 187 187 187
14 -3 12 187 187 187
10 -2 12 187 187 187
14 -2 12 187 187 187
10 -1 12 187 187 187
11 -1 12 187 187 187
12 -1 12 187 187 187
13 -1 12 187 187 187
14 -1 12 187 187 187
14 0 12 187 187 187
10 1 12 187 187 187
11 1 12 187 187 187
12 1 12 187 187 187
13 1 12 187 187 187
14 1 12 187 187 187
10 2 12 187 187 187
14 2 12 187 187 187
10 3 12 187 187 187
14 3 12 187 187 187
10 4 12 187 187 187
14 4 12 187 187 187
10 5 12 187 187 187
11 5 12 187 187 187
12 5 12 187 187 187
13 5 12 187 187 187
10 -5 13 187 187 187
11 -5 13 187 187 187
12 -5 13 187 187 187
13 -5 13 187 187 187
14 -5 13 187 187 187
10 -4 13 187 187 187
11 -4 13 187 187 187
12 -4 13 187 187 187
13 -4 13 187 187 187
14 -4 13 187 187 187
10 -3 13 187 187 187
11 -3 13 187 187 187
12 -3 13 187 187 187
13 -3 13 187 187 187
14 -3 13 187 187 187
10 -2 13 187 187 187
11 -2 13 187 187 187
12 -2 13 187 187 187
13 -2 13 187 187 187
14 -2 13 187 187 187
10 -1 13 187 187 187
11 -1 13 187 187 187
12 -1 13 187 187 187
13 -1 13 187 187 187
14 -1 13 187 187 187
10 0 13 187 187 187
11 0 13 187 187 187
12 0 13 187 187 187
13 0 13 187 187 187
14 0 13 187 187 187
10 1 13 187 187 187
11 1 13 187 187 187
12 1 13 187 187 187
13 1 13 187 187 187
14 1 13 187 187 187
10 2 13 187 187 187
11 2 13 187 187 187
12 2 13 187 187 187
13 2 13 187 187 187
14 2 13 187 187 187
10 3 13 187 187 187
11 3 13 187 187 187
12 3 13 187 187 187
13 3 13 187 187 187
14 3 13 187 187 187
10 4 13 187 187 187
11 4 13 187 187 187
12 4 13 187 187 187
13 4 13 187 187 187
14 4 13 187 187 187
10 5 13 187 187 187
11 5 13 187 187 187
12 5 13 187 187 187
13 5 13 187 187 187
14 5 13 187 187 187
