ply
format ascii 1.0
comment : MagicaVoxel @ Ephtracy
element vertex 713
property float x
property float y
property float z
property uchar red
property uchar green
property uchar blue
end_header
-5 -7 0 153 204 255
-4 -7 0 153 204 255
-3 -7 0 153 204 255
-2 -7 0 153 204 255
-1 -7 0 153 204 255
0 -7 0 153 204 255
1 -7 0 153 204 255
2 -7 0 153 204 255
3 -7 0 153 204 255
4 -7 0 153 204 255
5 -7 0 153 204 255
-5 -6 0 153 204 255
-4 -6 0 153 204 255
-3 -6 0 153 204 255
-2 -6 0 153 204 255
-1 -6 0 153 204 255
0 -6 0 153 204 255
1 -6 0 153 204 255
2 -6 0 153 204 255
3 -6 0 153 204 255
4 -6 0 153 204 255
5 -6 0 153 204 255
-5 -5 0 153 204 255
-4 -5 0 153 204 255
-3 -5 0 153 204 255
-2 -5 0 153 204 255
-1 -5 0 153 204 255
0 -5 0 153 204 255
1 -5 0 153 204 255
2 -5 0 153 204 255
3 -5 0 153 204 255
4 -5 0 153 204 255
5 -5 0 153 204 255
-5 -4 0 153 204 255
-4 -4 0 153 204 255
-3 -4 0 153 204 255
-2 -4 0 153 204 255
-1 -4 0 153 204 255
0 -4 0 153 204 255
1 -4 0 153 204 255
2 -4 0 153 204 255
3 -4 0 153 204 255
4 -4 0 153 204 255
5 -4 0 153 204 255
-5 -3 0 153 204 255
-4 -3 0 153 204 255
-3 -3 0 153 204 255
-2 -3 0 153 204 255
-1 -3 0 153 204 255
0 -3 0 153 204 255
1 -3 0 153 204 255
2 -3 0 153 204 255
3 -3 0 153 204 255
4 -3 0 153 204 255
5 -3 0 153 204 255
-5 -2 0 153 204 255
-4 -2 0 153 204 255
-3 -2 0 153 204 255
-2 -2 0 153 204 255
-1 -2 0 153 204 255
0 -2 0 153 204 255
1 -2 0 153 204 255
2 -2 0 153 204 255
3 -2 0 153 204 255
4 -2 0 153 204 255
5 -2 0 153 204 255
-5 -1 0 153 204 255
-4 -1 0 153 204 255
-3 -1 0 153 204 255
-2 -1 0 153 204 255
-1 -1 0 153 204 255
0 -1 0 153 204 255
1 -1 0 153 204 255
2 -1 0 153 204 255
3 -1 0 153 204 255
4 -1 0 153 204 255
5 -1 0 153 204 255
-5 0 0 153 204 255
-4 0 0 153 204 255
-3 0 0 153 204 255
-2 0 0 153 204 255
-1 0 0 153 204 255
0 0 0 153 204 255
1 0 0 153 204 255
2 0 0 153 204 255
3 0 0 153 204 255
4 0 0 153 204 255
5 0 0 153 204 255
-5 1 0 153 204 255
-4 1 0 153 204 255
-3 1 0 153 204 255
-2 1 0 153 204 255
-1 1 0 153 204 255
0 1 0 153 204 255
1 1 0 153 204 255
2 1 0 153 204 255
3 1 0 153 204 255
4 1 0 153 204 255
5 1 0 153 204 255
-5 2 0 153 204 255
-4 2 0 153 204 255
-3 2 0 153 204 255
-2 2 0 153 204 255
-1 2 0 153 204 255
0 2 0 153 204 255
1 2 0 153 204 255
2 2 0 153 204 255
3 2 0 153 204 255
4 2 0 153 204 255
5 2 0 153 204 255
-5 3 0 153 204 255
-4 3 0 153 204 255
-3 3 0 153 204 255
-2 3 0 153 204 255
-1 3 0 153 204 255
0 3 0 153 204 255
1 3 0 153 204 255
2 3 0 153 204 255
3 3 0 153 204 255
4 3 0 153 204 255
5 3 0 153 204 255
-5 4 0 153 204 255
-4 4 0 153 204 255
-3 4 0 153 204 255
-2 4 0 153 204 255
-1 4 0 153 204 255
0 4 0 153 204 255
1 4 0 153 204 255
2 4 0 153 204 255
3 4 0 153 204 255
4 4 0 153 204 255
5 4 0 153 204 255
-5 5 0 153 204 255
-4 5 0 153 204 255
-3 5 0 153 204 255
-2 5 0 153 204 255
-1 5 0 153 204 255
0 5 0 153 204 255
1 5 0 153 204 255
2 5 0 153 204 255
3 5 0 153 204 255
4 5 0 153 204 255
5 5 0 153 204 255
-5 -7 1 153 204 255
-4 -7 1 153 204 255
-3 -7 1 153 204 255
-2 -7 1 153 204 255
-1 -7 1 153 204 255
0 -7 1 153 204 255
1 -7 1 153 204 255
2 -7 1 153 204 255
3 -7 1 153 204 255
4 -7 1 153 204 255
5 -7 1 153 204 255
-5 -6 1 153 204 255
1 -6 1 153 204 255
2 -6 1 153 204 255
3 -6 1 153 204 255
4 -6 1 153 204 255
5 -6 1 153 204 255
-5 -5 1 153 204 255
-4 -5 1 153 204 255
-3 -5 1 153 204 255
-2 -5 1 153 204 255
-1 -5 1 153 204 255
1 -5 1 153 204 255
2 -5 1 153 204 255
3 -5 1 153 204 255
4 -5 1 153 204 255
5 -5 1 153 204 255
-5 -4 1 153 204 255
-4 -4 1 153 204 255
-3 -4 1 153 204 255
3 -4 1 153 204 255
4 -4 1 153 204 255
5 -4 1 153 204 255
-5 -3 1 153 204 255
-4 -3 1 153 204 255
-3 -3 1 153 204 255
-2 -3 1 153 204 255
2 -3 1 153 204 255
3 -3 1 153 204 255
4 -3 1 153 204 255
5 -3 1 153 204 255
-5 -2 1 153 204 255
-4 -2 1 153 204 255
-3 -2 1 153 204 255
-2 -2 1 153 204 255
2 -2 1 153 204 255
3 -2 1 153 204 255
4 -2 1 153 204 255
5 -2 1 153 204 255
-5 -1 1 153 204 255
-4 -1 1 153 204 255
-3 -1 1 153 204 255
-2 -1 1 153 204 255
2 -1 1 153 204 255
3 -1 1 153 204 255
4 -1 1 153 204 255
5 -1 1 153 204 255
-5 0 1 153 204 255
-4 0 1 153 204 255
-3 0 1 153 204 255
3 0 1 153 204 255
4 0 1 153 204 255
5 0 1 153 204 255
-5 1 1 153 204 255
-4 1 1 153 204 255
-3 1 1 153 204 255
-2 1 1 153 204 255
-1 1 1 153 204 255
1 1 1 153 204 255
2 1 1 153 204 255
3 1 1 153 204 255
4 1 1 153 204 255
5 1 1 153 204 255
-5 2 1 153 204 255
-4 2 1 153 204 255
-3 2 1 0 238 0
1 2 1 238 0 0
3 2 1 0 221 0
4 2 1 153 204 255
5 2 1 153 204 255
-5 3 1 153 204 255
-4 3 1 153 204 255
-3 3 1 153 204 255
-2 3 1 153 204 255
-1 3 1 153 204 255
0 3 1 153 204 255
1 3 1 153 204 255
2 3 1 153 204 255
3 3 1 153 204 255
4 3 1 153 204 255
5 3 1 153 204 255
-5 4 1 153 204 255
-4 4 1 153 204 255
-3 4 1 153 204 255
-2 4 1 153 204 255
-1 4 1 153 204 255
0 4 1 153 204 255
1 4 1 153 204 255
2 4 1 153 204 255
3 4 1 153 204 255
4 4 1 153 204 255
5 4 1 153 204 255
-5 5 1 153 204 255
-4 5 1 153 204 255
-3 5 1 153 204 255
-2 5 1 153 204 255
-1 5 1 153 204 255
0 5 1 153 204 255
1 5 1 153 204 255
2 5 1 153 204 255
3 5 1 153 204 255
4 5 1 153 204 255
5 5 1 153 204 255
-5 -7 2 153 204 255
-4 -7 2 153 204 255
-3 -7 2 153 204 255
-2 -7 2 153 204 255
-1 -7 2 153 204 255
0 -7 2 153 204 255
1 -7 2 153 204 255
2 -7 2 153 204 255
3 -7 2 153 204 255
4 -7 2 153 204 255
5 -7 2 153 204 255
-5 -6 2 153 204 255
-4 -6 2 153 204 255
-3 -6 2 153 204 255
-2 -6 2 153 204 255
-1 -6 2 153 204 255
0 -6 2 153 204 255
1 -6 2 153 204 255
2 -6 2 153 204 255
3 -6 2 153 204 255
4 -6 2 153 204 255
5 -6 2 153 204 255
-5 -5 2 153 204 255
-4 -5 2 153 204 255
-3 -5 2 153 204 255
-2 -5 2 153 204 255
-1 -5 2 153 204 255
0 -5 2 153 204 255
1 -5 2 153 204 255
2 -5 2 153 204 255
3 -5 2 153 204 255
4 -5 2 153 204 255
5 -5 2 153 204 255
-5 -4 2 153 204 255
-4 -4 2 0 68 0
-3 -4 2 153 204 255
3 -4 2 153 204 255
4 -4 2 153 204 255
5 -4 2 153 204 255
-5 -3 2 153 204 255
-3 -3 2 153 204 255
3 -3 2 153 204 255
4 -3 2 0 68 0
5 -3 2 153 204 255
-5 -2 2 153 204 255
3 -2 2 238 0 0
5 -2 2 153 204 255
-5 -1 2 153 204 255
-3 -1 2 153 204 255
3 -1 2 153 204 255
5 -1 2 153 204 255
-5 0 2 153 204 255
-3 0 2 153 204 255
3 0 2 153 204 255
5 0 2 153 204 255
-5 1 2 153 204 255
-3 1 2 153 204 255
-2 1 2 153 204 255
-1 1 2 153 204 255
0 1 2 153 204 255
1 1 2 153 204 255
2 1 2 153 204 255
3 1 2 153 204 255
5 1 2 153 204 255
-5 2 2 153 204 255
-2 2 2 153 204 255
-1 2 2 153 204 255
0 2 2 153 204 255
1 2 2 153 204 255
2 2 2 153 204 255
5 2 2 153 204 255
-5 3 2 153 204 255
-3 3 2 153 204 255
-2 3 2 153 204 255
-1 3 2 153 204 255
0 3 2 153 204 255
1 3 2 153 204 255
2 3 2 153 204 255
3 3 2 153 204 255
5 3 2 153 204 255
-5 4 2 153 204 255
-3 4 2 0 221 0
-2 4 2 153 204 255
-1 4 2 153 204 255
0 4 2 153 204 255
1 4 2 153 204 255
2 4 2 153 204 255
3 4 2 0 238 0
5 4 2 153 204 255
-5 5 2 153 204 255
-4 5 2 153 204 255
-3 5 2 153 204 255
-2 5 2 153 204 255
-1 5 2 153 204 255
0 5 2 153 204 255
1 5 2 153 204 255
2 5 2 153 204 255
3 5 2 153 204 255
4 5 2 153 204 255
5 5 2 153 204 255
-5 -7 3 153 204 255
-4 -7 3 153 204 255
-3 -7 3 153 204 255
-2 -7 3 153 204 255
-1 -7 3 153 204 255
0 -7 3 153 204 255
1 -7 3 153 204 255
2 -7 3 153 204 255
3 -7 3 153 204 255
4 -7 3 153 204 255
5 -7 3 153 204 255
-5 -6 3 153 204 255
-4 -6 3 153 204 255
-3 -6 3 153 204 255
-2 -6 3 153 204 255
-1 -6 3 153 204 255
1 -6 3 153 204 255
2 -6 3 153 204 255
3 -6 3 153 204 255
4 -6 3 153 204 255
5 -6 3 153 204 255
-5 -5 3 153 204 255
-3 -5 3 238 0 0
5 -5 3 153 204 255
-5 -4 3 153 204 255
-3 -4 3 153 204 255
3 -4 3 153 204 255
5 -4 3 153 204 255
-5 -3 3 153 204 255
-4 -3 3 153 204 255
-3 -3 3 153 204 255
3 -3 3 153 204 255
5 -3 3 153 204 255
-5 -2 3 153 204 255
-4 -2 3 153 204 255
-3 -2 3 153 204 255
3 -2 3 153 204 255
4 -2 3 153 204 255
5 -2 3 153 204 255
-5 -1 3 153 204 255
-4 -1 3 153 204 255
-3 -1 3 153 204 255
3 -1 3 153 204 255
4 -1 3 153 204 255
5 -1 3 153 204 255
-5 0 3 153 204 255
-4 0 3 153 204 255
-3 0 3 153 204 255
-2 0 3 0 0 255
-1 0 3 0 0 255
0 0 3 0 0 255
1 0 3 0 0 255
2 0 3 0 0 255
3 0 3 153 204 255
4 0 3 153 204 255
5 0 3 153 204 255
-5 1 3 153 204 255
-4 1 3 153 204 255
-3 1 3 153 204 255
-2 1 3 153 204 255
-1 1 3 153 204 255
0 1 3 153 204 255
1 1 3 153 204 255
2 1 3 153 204 255
3 1 3 153 204 255
4 1 3 153 204 255
5 1 3 153 204 255
-5 2 3 153 204 255
-4 2 3 153 204 255
-3 2 3 153 204 255
-2 2 3 153 204 255
-1 2 3 153 204 255
0 2 3 153 204 255
1 2 3 153 204 255
2 2 3 153 204 255
3 2 3 153 204 255
4 2 3 153 204 255
5 2 3 153 204 255
-5 3 3 153 204 255
-3 3 3 153 204 255
-2 3 3 0 68 0
-1 3 3 153 204 255
0 3 3 153 204 255
1 3 3 153 204 255
2 3 3 0 68 0
3 3 3 153 204 255
5 3 3 153 204 255
-5 4 3 153 204 255
-1 4 3 153 204 255
0 4 3 153 204 255
1 4 3 153 204 255
5 4 3 153 204 255
-5 5 3 153 204 255
-4 5 3 153 204 255
-3 5 3 153 204 255
-2 5 3 153 204 255
-1 5 3 153 204 255
0 5 3 153 204 255
1 5 3 153 204 255
2 5 3 153 204 255
3 5 3 153 204 255
4 5 3 153 204 255
5 5 3 153 204 255
-5 -7 4 153 204 255
-4 -7 4 153 204 255
-3 -7 4 153 204 255
-2 -7 4 153 204 255
-1 -7 4 153 204 255
0 -7 4 153 204 255
1 -7 4 153 204 255
2 -7 4 153 204 255
3 -7 4 153 204 255
4 -7 4 153 204 255
5 -7 4 153 204 255
-5 -6 4 153 204 255
-4 -6 4 153 204 255
-3 -6 4 153 204 255
-2 -6 4 153 204 255
-1 -6 4 153 204 255
0 -6 4 153 204 255
1 -6 4 153 204 255
2 -6 4 153 204 255
3 -6 4 153 204 255
4 -6 4 153 204 255
5 -6 4 153 204 255
-5 -5 4 153 204 255
-4 -5 4 153 204 255
-3 -5 4 153 204 255
-2 -5 4 153 204 255
-1 -5 4 153 204 255
0 -5 4 153 204 255
1 -5 4 153 204 255
2 -5 4 153 204 255
3 -5 4 153 204 255
4 -5 4 153 204 255
5 -5 4 153 204 255
-5 -4 4 153 204 255
-4 -4 4 153 204 255
-3 -4 4 153 204 255
3 -4 4 153 204 255
4 -4 4 153 204 255
5 -4 4 153 204 255
-5 -3 4 153 204 255
-4 -3 4 153 204 255
-3 -3 4 153 204 255
3 -3 4 153 204 255
4 -3 4 153 204 255
5 -3 4 153 204 255
-5 -2 4 153 204 255
-4 -2 4 153 204 255
-3 -2 4 153 204 255
3 -2 4 153 204 255
4 -2 4 153 204 255
5 -2 4 153 204 255
-5 -1 4 153 204 255
-4 -1 4 153 204 255
-3 -1 4 153 204 255
3 -1 4 153 204 255
4 -1 4 153 204 255
5 -1 4 153 204 255
-5 0 4 153 204 255
-4 0 4 153 204 255
-3 0 4 153 204 255
3 0 4 153 204 255
4 0 4 153 204 255
5 0 4 153 204 255
-5 1 4 153 204 255
-4 1 4 153 204 255
-3 1 4 153 204 255
-2 1 4 221 0 0
-1 1 4 153 204 255
0 1 4 153 204 255
1 1 4 153 204 255
3 1 4 153 204 255
4 1 4 153 204 255
5 1 4 153 204 255
-5 2 4 153 204 255
-4 2 4 153 204 255
-3 2 4 153 204 255
-1 2 4 153 204 255
0 2 4 153 204 255
1 2 4 153 204 255
3 2 4 153 204 255
4 2 4 153 204 255
5 2 4 153 204 255
-5 3 4 153 204 255
-4 3 4 153 204 255
-3 3 4 153 204 255
-1 3 4 153 204 255
0 3 4 153 204 255
1 3 4 153 204 255
3 3 4 153 204 255
4 3 4 153 204 255
5 3 4 153 204 255
-5 4 4 153 204 255
-4 4 4 153 204 255
-3 4 4 153 204 255
-1 4 4 153 204 255
0 4 4 153 204 255
1 4 4 153 204 255
3 4 4 153 204 255
4 4 4 153 204 255
5 4 4 153 204 255
-5 5 4 153 204 255
-4 5 4 153 204 255
-3 5 4 153 204 255
-2 5 4 153 204 255
-1 5 4 153 204 255
0 5 4 153 204 255
1 5 4 153 204 255
2 5 4 153 204 255
3 5 4 153 204 255
4 5 4 153 204 255
5 5 4 153 204 255
-5 -7 5 153 204 255
-4 -7 5 153 204 255
-3 -7 5 153 204 255
-2 -7 5 153 204 255
-1 -7 5 153 204 255
0 -7 5 153 204 255
1 -7 5 153 204 255
2 -7 5 153 204 255
3 -7 5 153 204 255
4 -7 5 153 204 255
5 -7 5 153 204 255
-5 -6 5 153 204 255
-4 -6 5 153 204 255
-3 -6 5 153 204 255
-2 -6 5 153 204 255
-1 -6 5 153 204 255
0 -6 5 153 204 255
1 -6 5 153 204 255
2 -6 5 153 204 255
3 -6 5 153 204 255
4 -6 5 153 204 255
5 -6 5 153 204 255
-5 -5 5 153 204 255
-4 -5 5 153 204 255
-3 -5 5 153 204 255
-2 -5 5 153 204 255
-1 -5 5 153 204 255
0 -5 5 153 204 255
1 -5 5 153 204 255
2 -5 5 153 204 255
3 -5 5 153 204 255
4 -5 5 153 204 255
5 -5 5 153 204 255
-5 -4 5 153 204 255
-4 -4 5 153 204 255
-3 -4 5 153 204 255
-2 -4 5 153 204 255
-1 -4 5 153 204 255
0 -4 5 153 204 255
1 -4 5 153 204 255
2 -4 5 153 204 255
3 -4 5 153 204 255
4 -4 5 153 204 255
5 -4 5 153 204 255
-5 -3 5 153 204 255
-4 -3 5 153 204 255
-3 -3 5 153 204 255
-2 -3 5 153 204 255
-1 -3 5 153 204 255
0 -3 5 153 204 255
1 -3 5 153 204 255
2 -3 5 153 204 255
3 -3 5 153 204 255
4 -3 5 153 204 255
5 -3 5 153 204 255
-5 -2 5 153 204 255
-4 -2 5 153 204 255
-3 -2 5 153 204 255
-2 -2 5 153 204 255
-1 -2 5 153 204 255
0 -2 5 153 204 255
1 -2 5 153 204 255
2 -2 5 153 204 255
3 -2 5 153 204 255
4 -2 5 153 204 255
5 -2 5 153 204 255
-5 -1 5 153 204 255
-4 -1 5 153 204 255
-3 -1 5 153 204 255
-2 -1 5 153 204 255
-1 -1 5 153 204 255
0 -1 5 153 204 255
1 -1 5 153 204 255
2 -1 5 153 204 255
3 -1 5 153 204 255
4 -1 5 153 204 255
5 -1 5 153 204 255
-5 0 5 153 204 255
-4 0 5 153 204 255
-3 0 5 153 204 255
-2 0 5 153 204 255
-1 0 5 153 204 255
0 0 5 153 204 255
1 0 5 153 204 255
2 0 5 153 204 255
3 0 5 153 204 255
4 0 5 153 204 255
5 0 5 153 204 255
-5 1 5 153 204 255
-4 1 5 153 204 255
-3 1 5 153 204 255
-2 1 5 153 204 255
-1 1 5 153 204 255
0 1 5 153 204 255
1 1 5 153 204 255
2 1 5 153 204 255
3 1 5 153 204 255
4 1 5 153 204 255
5 1 5 153 204 255
-5 2 5 153 204 255
-4 2 5 153 204 255
-3 2 5 153 204 255
-2 2 5 153 204 255
-1 2 5 153 204 255
0 2 5 153 204 255
1 2 5 153 204 255
2 2 5 153 204 255
3 2 5 153 204 255
4 2 5 153 204 255
5 2 5 153 204 255
-5 3 5 153 204 255
-4 3 5 153 204 255
-3 3 5 153 204 255
-2 3 5 153 204 255
-1 3 5 153 204 255
0 3 5 153 204 255
1 3 5 153 204 255
2 3 5 153 204 255
3 3 5 153 204 255
4 3 5 153 204 255
5 3 5 153 204 255
-5 4 5 153 204 255
-4 4 5 153 204 255
-3 4 5 153 204 255
-2 4 5 153 204 255
-1 4 5 153 204 255
0 4 5 153 204 255
1 4 5 153 204 255
2 4 5 153 204 255
3 4 5 153 204 255
4 4 5 153 204 255
5 4 5 153 204 255
-5 5 5 153 204 255
-4 5 5 153 204 255
-3 5 5 153 204 255
-2 5 5 153 204 255
-1 5 5 153 204 255
0 5 5 153 204 255
1 5 5 153 204 255
2 5 5 153 204 255
3 5 5 153 204 255
4 5 5 153 204 255
5 5 5 153 204 255
